

Release info:

General
Format                                   : Matroska
Format version                           : Version 2
File size                                : 989 MiB
Duration                                 : 2h 14mn
Overall bit rate                         : 1 025 Kbps

Video
ID                                       : 2
Format                                   : AVC
Format/Info                              : Advanced Video Codec
Format profile                           : High@L4.0
Format settings, CABAC                   : No
Format settings, ReFrames                : 7 frames
Muxing mode                              : Header stripping
Codec ID                                 : V_MPEG4/ISO/AVC
Bit rate                                 : 781 Kbps
Nominal bit rate                         : 833 Kbps
Width                                    : 1 280 pixels
Height                                   : 536 pixels
Display aspect ratio                     : 2.40:1
Frame rate mode                          : Variable
Original frame rate                      : 23.976 fps
Color space                              : YUV
Chroma subsampling                       : 4:2:0
Bit depth                                : 8 bits
Scan type                                : Progressive
Bits/(Pixel*Frame)                       : 0.051
Language                                 : English
Default                                  : Yes
Forced                                   : No

Audio #1
ID                                       : 3
Format                                   : AC-3
Format/Info                              : Audio Coding 3
Mode extension                           : CM (complete main)
Format settings, Endianness              : Big
Muxing mode                              : Header stripping
Codec ID                                 : A_AC3
Duration                                 : 2h 14mn
Bit rate mode                            : Constant
Bit rate                                 : 96.0 Kbps
Channel(s)                               : 6 channels
Channel positions                        : Front: L C R, Side: L R, LFE
Sampling rate                            : 44.1 KHz
Bit depth                                : 16 bits
Compression mode                         : Lossy
Stream size                              : 92.6 MiB (9%)
Language                                 : English
Default                                  : Yes
Forced                                   : No

Audio #2
ID                                       : 4
Format                                   : AC-3
Format/Info                              : Audio Coding 3
Mode extension                           : CM (complete main)
Format settings, Endianness              : Big
Muxing mode                              : Header stripping
Codec ID                                 : A_AC3
Duration                                 : 2h 14mn
Bit rate mode                            : Constant
Bit rate                                 : 128 Kbps
Channel(s)                               : 6 channels
Channel positions                        : Front: L C R, Side: L R, LFE
Sampling rate                            : 44.1 KHz
Bit depth                                : 16 bits
Compression mode                         : Lossy
Stream size                              : 124 MiB (12%)
Language                                 : Hindi
Default                                  : No
Forced                                   : No

Subtitles: English, French, Arabic, Dutch, Norwegian, Swedish, Hebrew, Danish, Finnish, Persian



Source:
credit to original movie ripper (Thanks)

IMDB Info:

An expansion of the universe from Robert Ludlum's novels, centered on a new hero whose stakes have been triggered by the events of the previous three films.

Director: Tony Gilroy
Writers: Tony Gilroy (screenplay), Dan Gilroy (screenplay), 
Stars: Jeremy Renner, Rachel Weisz and Edward Norton

Genres: Action | Adventure | Mystery | Thriller
 
http://www.imdb.com/title/tt1194173/

Screen Shot:
 
http://img208.imageshack.us/img208/9551/vlcsnap2012120901h56m30.jpg 
http://img197.imageshack.us/img197/9218/vlcsnap2012121117h12m05.jpg 
http://img827.imageshack.us/img827/1971/vlcsnap2012121117h14m32.jpg 
http://img685.imageshack.us/img685/7519/vlcsnap2012121117h18m05.jpg
